<svg width="14" height="14" viewBox="0 0 14 14" fill="none" xmlns="http://www.w3.org/2000/svg">
<path opacity="0.4" d="M0.333252 7.6467V3.65999C0.333252 1.81999 1.82659 0.333328 3.66659 0.333328H10.3332C12.1732 0.333328 13.6665 1.81999 13.6665 3.65999V8.3133C13.6665 10.1467 12.1732 11.6333 10.3332 11.6333H9.33324C9.12654 11.6333 8.92654 11.7333 8.79994 11.9L7.79994 13.2267C7.35994 13.8133 6.63994 13.8133 6.19994 13.2267L5.19994 11.9C5.09324 11.7533 4.85324 11.6333 4.66654 11.6333H3.66659C1.82659 11.6333 0.333252 10.1467 0.333252 8.3133V7.6467Z" fill="#6C5DD3"/>
<path d="M10.3335 4.8333H3.66675C3.39341 4.8333 3.16675 4.6067 3.16675 4.3333C3.16675 4.06 3.39341 3.83333 3.66675 3.83333H10.3335C10.6068 3.83333 10.8335 4.06 10.8335 4.3333C10.8335 4.6067 10.6068 4.8333 10.3335 4.8333Z" fill="#6C5DD3"/>
<path d="M7.66676 8.1667H3.66675C3.39341 8.1667 3.16675 7.94 3.16675 7.6667C3.16675 7.3933 3.39341 7.1667 3.66675 7.1667H7.66676C7.94006 7.1667 8.16676 7.3933 8.16676 7.6667C8.16676 7.94 7.94006 8.1667 7.66676 8.1667Z" fill="#6C5DD3"/>
</svg>
