<svg width="23" height="23" viewBox="0 0 23 23" fill="none" xmlns="http://www.w3.org/2000/svg">
<g clip-path="url(#clip0_1_4879)">
<path d="M19.8491 8.06756C15.6781 5.19768 10.5507 2.29857 6.75912 0.512364C4.6167 -0.608691 1.48514 1.32404 1.31799 4.03924C0.968223 8.79863 0.968223 13.5773 1.31799 18.3367C1.48514 21.0519 4.6167 22.9846 6.75912 21.864C10.5507 20.0778 15.6781 17.1787 19.8491 14.3088C20.9869 13.5207 21.4862 12.3511 21.4927 11.1884C21.4862 10.0256 20.9874 8.85604 19.8491 8.06799V8.06756Z" fill="white"/>
<path d="M1.31806 4.03924C0.996911 8.41247 0.971072 12.8024 1.24072 17.1791C1.93553 17.3032 2.63995 17.3656 3.34576 17.3656C9.91095 17.3656 15.2331 12.0435 15.2331 5.47826C15.2331 5.3515 15.2309 5.22518 15.227 5.09928C12.2601 3.30877 9.22689 1.67467 6.7592 0.512364C4.61678 -0.608691 1.48521 1.32404 1.31806 4.03924Z" fill="white"/>
</g>
<defs>
<clipPath id="clip0_1_4879">
<rect width="22" height="22" fill="white" transform="translate(0.269043 0.187988)"/>
</clipPath>
</defs>
</svg>
