<svg width="32" height="30" viewBox="0 0 32 30" fill="none" xmlns="http://www.w3.org/2000/svg">
<path opacity="0.4" d="M31.8332 21.2387C31.8332 25.6562 28.2865 29.2345 23.869 29.2503H23.8532H8.16234C3.76067 29.2503 0.166504 25.6878 0.166504 21.2703V21.2545C0.166504 21.2545 0.176004 14.2467 0.188671 10.7222C0.190254 10.0603 0.950254 9.68983 1.468 10.1015C5.23 13.0861 11.9576 18.528 12.0415 18.5992C13.1657 19.5002 14.5907 20.0084 16.0473 20.0084C17.504 20.0084 18.929 19.5002 20.0532 18.5818C20.1371 18.5264 26.7143 13.2476 30.5333 10.2139C31.0526 9.80066 31.8158 10.1712 31.8173 10.8314C31.8332 14.329 31.8332 21.2387 31.8332 21.2387Z" fill="#6C5DD3"/>
<path d="M31.0036 4.98335C29.6325 2.39935 26.9345 0.749512 23.9641 0.749512H8.16248C5.19214 0.749512 2.49415 2.39935 1.12298 4.98335C0.815812 5.56126 0.961479 6.28168 1.4729 6.69018L13.2291 16.0936C14.0525 16.7586 15.05 17.0895 16.0475 17.0895C16.0538 17.0895 16.0586 17.0895 16.0633 17.0895C16.0681 17.0895 16.0744 17.0895 16.0791 17.0895C17.0766 17.0895 18.0741 16.7586 18.8975 16.0936L30.6537 6.69018C31.1651 6.28168 31.3108 5.56126 31.0036 4.98335Z" fill="#6C5DD3"/>
</svg>
